<svg xmlns="http://www.w3.org/2000/svg" viewBox="0 0 24 24" width="48" height="48" role="img" aria-label="Medigold Medical Services">
  <path fill="#C6A94B" d="M12 21.35l-1.45-1.32C5.4 15.36 2 12.28 2 8.5 2 5.42 4.42 3 7.5 3c1.74 0 3.41.81 4.5 2.09C13.09 3.81 14.76 3 16.5 3 19.58 3 22 5.42 22 8.5c0 3.78-3.4 6.86-8.55 11.54L12 21.35z"/>
  <polyline points="5,11.4 8.2,11.4 9.6,8.6 11,14.2 12.5,10.4 13.7,11.4 19,11.4" fill="none" stroke="#ffffff" stroke-width="0.8" stroke-linecap="round" stroke-linejoin="round"/>
  <circle cx="5" cy="11.4" r="0.75" fill="#ffffff"/>
  <circle cx="19" cy="11.4" r="0.75" fill="#ffffff"/>
</svg>
